<?xml version="1.0" standalone="no"?>
<!DOCTYPE svg PUBLIC "-//W3C//DTD SVG 20010904//EN"
 "http://www.w3.org/TR/2001/REC-SVG-20010904/DTD/svg10.dtd">
<svg version="1.0" xmlns="http://www.w3.org/2000/svg"
 width="435.000000pt" height="476.000000pt" viewBox="0 0 435.000000 476.000000"
 preserveAspectRatio="xMidYMid meet">

<g transform="translate(0.000000,476.000000) scale(0.100000,-0.100000)"
fill="#060494" stroke="none">
<path d="M2880 4706 c0 -2 29 -22 64 -44 106 -66 193 -199 232 -352 9 -36 18
-67 21 -70 3 -3 2 31 -2 75 -15 172 -101 306 -244 378 -31 15 -71 23 -71 13z"/>
<path d="M2750 4626 c0 -2 29 -22 64 -44 35 -23 80 -60 101 -83 54 -60 105
-175 118 -264 6 -41 15 -75 20 -75 15 0 2 170 -18 224 -34 99 -120 189 -219
230 -36 15 -66 21 -66 12z"/>
<path d="M1936 4534 c-22 -8 -47 -20 -55 -27 -9 -8 -36 -25 -61 -39 -74 -43
-128 -139 -150 -271 -23 -137 1 -272 72 -414 82 -162 219 -292 370 -352 76
-31 168 -49 168 -35 -1 5 -42 29 -93 53 -74 36 -106 58 -163 117 -191 194
-298 424 -292 623 4 106 22 114 26 11 4 -136 70 -322 164 -468 55 -85 171
-196 248 -236 146 -77 242 -90 330 -46 47 24 63 44 101 124 30 64 32 75 33
190 1 107 -3 132 -28 211 -15 50 -35 100 -43 113 -8 13 -13 33 -11 45 3 20 8
22 59 19 50 -3 58 -1 76 22 26 32 22 84 -8 109 -32 26 -104 23 -123 -5 -9 -12
-16 -32 -16 -43 0 -12 -6 -29 -13 -39 -13 -17 -15 -15 -36 25 -57 110 -227
262 -333 299 -77 26 -174 32 -222 14z m182 -519 c34 -33 36 -37 19 -48 -44
-29 -52 -36 -44 -43 4 -5 22 -3 40 4 28 11 34 10 45 -5 17 -24 15 -94 -4 -121
-20 -29 -55 -28 -104 4 -52 34 -79 80 -87 143 -8 68 13 101 62 101 27 0 45 -9
73 -35z"/>
<path d="M2700 4454 c0 -3 25 -28 55 -56 66 -60 77 -79 100 -176 20 -82 35
-80 35 4 0 89 -50 178 -120 214 -38 19 -70 26 -70 14z"/>
<path d="M1718 3633 c-19 -22 -88 -170 -88 -189 0 -11 33 -14 165 -14 91 0
165 3 165 8 -1 4 -26 27 -56 52 -31 25 -77 71 -102 102 -51 63 -61 67 -84 41z"/>
<path d="M1575 3350 c-30 -59 -28 -60 113 -60 86 0 132 -4 140 -12 8 -8 12
-52 12 -130 0 -132 12 -173 55 -184 35 -9 78 9 92 37 13 27 21 349 9 368 -5 7
-71 11 -206 11 l-199 0 -16 -30z"/>
<path d="M1502 3230 c-23 -5 -47 -12 -52 -15 -6 -3 -10 -56 -10 -118 0 -130
-14 -173 -75 -226 -35 -30 -42 -33 -89 -28 -45 4 -55 10 -92 51 l-42 46 -4 99
c-1 55 -6 103 -10 107 -23 23 -331 -98 -342 -135 -30 -95 -46 -476 -26 -571 6
-25 12 -55 15 -67 4 -19 12 -23 41 -23 19 0 54 4 77 9 38 9 152 25 357 51 186
24 566 34 847 22 311 -13 331 -15 796 -73 67 -9 101 -9 108 -2 15 15 14 612
-1 645 -12 25 -30 36 -163 98 -94 43 -101 40 -108 -46 -9 -101 -17 -129 -42
-150 -61 -52 -109 -61 -166 -32 -67 34 -85 77 -89 211 -4 91 -7 109 -22 117
-17 9 -92 20 -256 37 l-52 5 -4 -123 c-5 -155 -16 -180 -95 -215 -58 -26 -100
-25 -154 2 -53 26 -64 58 -69 199 l-5 130 -115 2 c-63 0 -134 -3 -158 -7z"/>
<path d="M1429 2336 c-2 -2 -65 -9 -139 -15 -208 -17 -386 -43 -472 -67 -35
-10 -17 -29 53 -58 52 -21 87 -44 130 -86 89 -87 99 -117 109 -333 5 -100 9
-188 10 -196 0 -15 60 -13 220 7 185 24 313 32 483 32 l177 0 10 24 c5 13 25
36 45 51 28 22 47 28 93 29 49 1 62 -3 95 -29 51 -41 71 -86 63 -142 -11 -82
-69 -133 -152 -133 -70 0 -113 26 -148 89 l-26 49 -137 7 c-88 5 -172 4 -233
-4 -52 -6 -153 -16 -225 -22 -71 -6 -159 -13 -195 -17 l-65 -7 1 -50 c5 -280
5 -456 -1 -465 -12 -19 -51 27 -119 140 -116 193 -207 393 -269 589 l-23 75
-30 -50 c-17 -27 -39 -70 -49 -96 -18 -48 -18 -48 9 -123 67 -188 226 -475
374 -675 227 -305 462 -530 766 -734 86 -57 113 -58 198 -11 219 120 508 374
690 605 36 47 77 99 91 115 109 135 265 412 341 605 21 52 42 105 47 118 5 13
9 38 9 57 0 62 -48 215 -68 215 -5 0 -15 -25 -21 -56 -42 -186 -201 -538 -307
-681 -13 -17 -24 -35 -24 -40 -1 -4 -11 -20 -23 -35 -22 -26 -24 -26 -97 -18
-110 12 -237 29 -300 40 -66 12 -500 25 -534 16 -14 -3 -26 -16 -30 -29 -9
-36 -75 -96 -113 -103 -107 -20 -193 48 -193 151 0 81 68 145 155 145 60 0
103 -24 134 -74 l23 -36 226 0 c214 0 357 -10 552 -42 36 -5 81 -8 100 -6 l35
3 3 416 c2 347 0 418 -11 428 -8 6 -61 16 -118 21 -56 5 -110 12 -118 14 -32
9 -508 37 -581 34 l-75 -3 -25 -48 c-77 -146 -276 -121 -306 38 -9 47 22 112
69 146 72 52 165 35 221 -41 l30 -40 208 0 c201 0 276 -5 538 -35 180 -21 172
-23 208 33 44 68 119 135 191 172 34 17 61 36 58 43 -6 18 -237 57 -472 79
-121 11 -1056 24 -1066 14z"/>
<path d="M1535 2057 c-41 -41 -45 -74 -15 -123 26 -41 78 -61 112 -43 49 25
68 51 68 94 0 51 -36 89 -93 99 -34 6 -41 4 -72 -27z"/>
<path d="M2076 1639 c-80 -94 39 -222 133 -143 26 22 31 33 31 72 0 64 -36
102 -96 102 -35 0 -47 -5 -68 -31z"/>
<path d="M1554 1161 c-29 -13 -54 -55 -54 -93 0 -65 78 -113 142 -89 61 23 80
113 35 159 -26 26 -89 38 -123 23z"/>
</g>
</svg>
